<svg width="152" height="72" viewBox="0 0 152 72" fill="none" xmlns="http://www.w3.org/2000/svg">
<g clip-path="url(#clip0_4702_1850)">
<path d="M67.4724 26.5726C67.1595 25.7209 66.7432 25.0434 66.2235 24.5428C65.7011 24.0421 65.0889 23.7945 64.3815 23.7945C63.674 23.7945 63.1326 24.0449 62.7571 24.5428C62.3816 25.0434 61.8619 25.9386 61.1953 27.2283L58.3221 33.0346C59.0295 29.5383 59.5383 26.9263 59.8512 25.1985C60.1641 23.4707 60.3192 22.1702 60.3192 21.2968C60.3192 20.6737 60.194 20.0479 59.9437 19.4248C59.6934 18.8017 59.3614 18.2276 58.9451 17.7079C58.5288 17.1882 58.0391 16.7093 57.4786 16.3964C56.9181 16.0863 56.3249 15.8659 55.7018 15.8659H55.6991C55.408 15.8659 55.1386 15.9693 54.8883 16.0536C54.638 16.138 54.3686 16.3556 54.0775 16.6468C53.7863 16.9379 53.4626 17.4032 53.1088 18.0045C52.7551 18.6085 52.328 19.4166 51.8273 20.4152L47.9555 28.1615C48.2466 25.623 48.5078 23.5007 48.7364 21.7947C48.9649 20.0887 49.1527 18.6521 49.2996 17.4875C49.4438 16.323 49.5499 15.3652 49.6125 14.617C49.6751 13.8687 49.705 13.1804 49.705 12.5573C49.705 11.5179 49.539 10.5602 49.2044 9.68403C48.8697 8.81063 48.4344 8.05966 47.8929 7.43658C47.3515 6.81078 46.7692 6.32374 46.1434 5.97003C45.5203 5.61631 44.9353 5.43945 44.3939 5.43945C43.9368 5.43945 43.5504 5.51292 43.2375 5.65712C42.9246 5.80405 42.6144 6.07342 42.3015 6.46795C41.9886 6.8652 41.6784 7.44746 41.3655 8.21747C41.0526 8.98748 40.688 9.99693 40.2717 11.2458L34.9007 28.1071L35.4639 15.2428C35.5047 14.0783 35.3714 12.9845 35.0585 11.9641C34.7456 10.9438 34.3293 10.0704 33.8096 9.3412C33.2899 8.61472 32.6941 8.04062 32.0302 7.62432C31.3636 7.20803 30.6969 7.00124 30.033 7.00124C29.41 7.00124 28.8059 7.21891 28.2209 7.65697C27.6387 8.09503 27.0346 8.9902 26.4088 10.3425C25.7857 11.6948 25.1191 13.6511 24.4117 16.2114C23.7043 18.7718 22.9125 22.1756 22.0391 26.4202C21.416 29.5029 20.8936 32.0823 20.4773 34.1638C20.061 36.2453 19.6121 37.9105 19.1359 39.1594C18.657 40.4082 18.0829 41.3034 17.419 41.8449C16.7524 42.3863 15.8572 42.6557 14.7335 42.6557C13.7758 42.6557 12.7881 42.5196 11.7678 42.2503C10.7474 41.9782 9.7788 41.6354 8.86458 41.2191C7.94765 40.8028 7.13682 40.3239 6.42939 39.7824C5.72196 39.241 5.18051 38.6995 4.80503 38.1581C5.8444 37.7826 7.05247 37.5948 8.42652 37.5948C9.50943 37.5948 10.5597 37.6683 11.58 37.8125C12.6004 37.9594 13.3812 38.0302 13.9227 38.0302C14.7145 38.0302 15.109 37.6547 15.109 36.9065C15.109 36.4494 14.9213 35.9378 14.5458 35.3773C14.1703 34.8141 13.618 34.2835 12.8915 33.7856C12.1623 33.285 11.2671 32.8714 10.206 32.5367C9.14483 32.2048 7.92588 32.0361 6.55183 32.0361C4.42954 32.0361 2.80518 32.5476 1.68145 33.5652C0.557729 34.5856 -0.00549316 35.8236 -0.00549316 37.2819C-0.00549316 38.6152 0.369989 39.8314 1.11823 40.9361C1.86647 42.038 2.87592 42.9958 4.14657 43.8093C5.4145 44.6202 6.89466 45.2541 8.57889 45.714C10.2658 46.1711 12.0453 46.3996 13.9173 46.3996C15.4981 46.3996 16.8531 46.1275 17.9768 45.5888C19.1005 45.0473 20.0365 44.329 20.7875 43.4339C21.5357 42.5387 22.1506 41.5075 22.6295 40.3429C23.1084 39.1784 23.492 37.9703 23.7859 36.7214L25.7232 27.231C26.1395 25.359 26.5122 23.702 26.8469 22.2654C27.1788 20.8288 27.4809 19.569 27.7529 18.4861C28.0223 17.4032 28.2726 16.4563 28.5012 15.6455C28.7297 14.8347 28.9474 14.1354 29.1569 13.5531C29.4072 13.8878 29.5324 14.9489 29.5324 16.7393C29.5324 18.5296 29.4589 20.6846 29.3147 22.9538C29.1678 25.223 29.0971 27.5439 29.0971 29.9165C29.0971 30.9994 29.2222 32.0089 29.4725 32.9449C29.7229 33.8808 30.0439 34.6944 30.4412 35.38C30.8357 36.0684 31.3146 36.6099 31.8778 37.0044C32.441 37.4017 33.0342 37.5976 33.6573 37.5976C34.4898 37.5976 35.1129 37.2439 35.5319 36.5364C35.9482 35.829 36.4462 34.6427 37.0312 32.9775L43.5885 12.9328C43.7136 13.2674 43.7762 13.7871 43.7762 14.4946C43.7762 15.4523 43.6837 16.6794 43.496 18.1786C43.3082 19.6778 43.1096 21.3621 42.9028 23.2367C42.6933 24.9019 42.5273 26.276 42.4022 27.3589C42.277 28.4418 42.1845 29.337 42.1219 30.0444C42.0593 30.7518 42.0185 31.3042 41.9968 31.6987C41.975 32.0959 41.9668 32.4388 41.9668 32.7299C41.9668 34.3135 42.2797 35.6875 42.9028 36.852C43.5259 38.0193 44.2769 38.6016 45.1503 38.6016C45.6917 38.6016 46.1706 38.3839 46.5869 37.9458C47.0032 37.5078 47.4603 36.8112 47.9609 35.8535L54.7659 22.1783C54.7659 22.679 54.6706 23.4898 54.4856 24.6135C54.2979 25.7372 54.0911 27.0079 53.8625 28.4228C53.634 29.8376 53.4163 31.2742 53.2068 32.7299C53 34.1883 52.8939 35.4998 52.8939 36.6643C52.8939 37.4969 53.0082 38.237 53.2367 38.8818C53.4653 39.5267 53.7483 40.06 54.0802 40.4735C54.4149 40.8898 54.7876 41.2 55.2039 41.4095C55.6202 41.6163 55.993 41.7224 56.3277 41.7224C56.9099 41.7224 57.4214 41.3878 57.8568 40.7239C58.2948 40.0572 58.8662 39.0369 59.5737 37.6629L63.7584 29.2336C63.6332 32.1068 63.3611 35.0508 62.9476 38.0683C62.5313 41.0857 61.9381 44.0216 61.1681 46.8731C60.3981 49.7245 59.4403 52.4318 58.2948 54.9922C57.1494 57.5525 55.7862 59.7891 54.2054 61.7046C52.6245 63.6201 50.8015 65.1383 48.7418 66.2621C46.6821 67.3858 44.3803 67.949 41.8417 67.949C41.1751 67.949 40.5629 67.9272 39.9996 67.8864C39.4364 67.8456 38.865 67.7613 38.2828 67.6361C37.7005 67.511 37.0747 67.3341 36.4081 67.1055C35.7415 66.877 35.015 66.594 34.2232 66.2621C33.8477 66.0961 33.494 66.0634 33.1621 66.1696C32.8301 66.273 32.6614 66.6158 32.6614 67.2008C32.6614 68.7 33.494 69.8754 35.1592 70.7298C36.8244 71.5814 38.9684 72.0086 41.5914 72.0086C44.7149 72.0086 47.5446 71.4454 50.0832 70.3216C52.6218 69.1979 54.8829 67.6878 56.8582 65.7941C58.8336 63.9003 60.5532 61.6719 62.0088 59.1116C63.4645 56.5512 64.6617 53.8249 65.6004 50.9326C66.5364 48.0376 67.2329 45.0718 67.6928 42.0326C68.1499 38.9934 68.3784 36.0167 68.3784 33.1027C68.3784 31.8538 68.305 30.6675 68.1608 29.5438C68.0138 28.42 67.7853 27.4324 67.4751 26.578L67.4724 26.5726Z" fill="white"/>
<path d="M143.309 13.3653C142.351 13.3653 141.366 13.9694 140.242 15.1774C139.119 16.3855 138.096 18.1758 137.551 20.5485C136.463 21.9225 135.696 23.3482 134.716 24.8257C133.737 26.3031 132.763 27.6881 131.848 28.9778C130.931 30.2675 130.074 31.4021 129.304 32.3816C128.534 33.3611 127.892 34.0576 127.392 34.4739C127.392 34.0576 127.419 33.3393 127.481 32.319C127.544 31.2987 127.637 30.0824 127.762 28.6649C127.887 27.25 128.031 25.6664 128.197 23.9196C128.363 22.1701 128.551 20.339 128.758 18.4234C129.59 18.5078 130.308 18.5595 130.912 18.5785C131.516 18.6003 132.11 18.6085 132.692 18.6085C133.108 18.6085 133.514 18.5051 133.911 18.2956C134.305 18.0888 134.67 17.8058 135.005 17.4521C135.337 17.0984 135.609 16.7039 135.815 16.2658C136.022 15.8277 136.128 15.3597 136.128 14.8618C136.128 14.4863 136.044 14.1843 135.878 13.9558C135.712 13.7272 135.399 13.6129 134.942 13.6129L129.196 13.7381L130.006 6.18219C130.088 5.64074 130.058 5.0884 129.914 4.5279C129.767 3.96467 129.362 3.68442 128.695 3.68442C128.279 3.68442 127.841 3.95651 127.383 4.49525C126.924 5.0367 126.499 5.73325 126.102 6.58761C125.705 7.44196 125.332 8.37795 124.978 9.39828C124.624 10.4186 124.363 11.4063 124.197 12.364L123.947 13.8007L119.825 13.8632C118.035 13.8632 116.745 14.187 115.953 14.8319C115.161 15.4767 114.767 16.0508 114.767 16.5488C114.767 16.7147 114.808 16.8617 114.892 16.9868C114.976 17.112 115.172 17.2154 115.485 17.2997C115.798 17.3841 116.277 17.4657 116.922 17.55C117.567 17.6344 118.451 17.716 119.575 17.8004L123.294 18.1133L122.581 23.234C122.309 23.819 121.838 24.5999 121.297 25.5767C120.755 26.5562 120.135 27.6064 119.468 28.7302C118.802 29.8539 118.116 30.9776 117.43 32.1013C116.745 33.2251 116.124 34.2046 115.583 35.0372C115.749 33.9134 115.901 32.7489 116.048 31.5408C116.192 30.3328 116.329 29.19 116.454 28.1071C116.579 27.0242 116.682 26.0365 116.767 25.1413C116.848 24.2461 116.892 23.5278 116.892 22.9864C116.892 22.3633 116.767 21.7892 116.516 21.2695C116.266 20.7498 115.942 20.3117 115.548 19.958C115.153 19.6043 114.726 19.3322 114.269 19.1472C113.809 18.9595 113.395 18.867 113.02 18.867C112.644 18.867 112.312 18.9812 112.021 19.2098C111.73 19.4383 111.387 19.8954 110.99 20.5838C110.593 21.2695 110.073 22.2381 109.428 23.487C108.784 24.7359 107.94 26.4011 106.901 28.4826C106.982 27.9003 107.078 27.2636 107.181 26.5779C107.284 25.8923 107.377 25.2257 107.461 24.5808C107.546 23.936 107.608 23.321 107.649 22.7388C107.69 22.1565 107.711 21.6776 107.711 21.3021C107.711 19.8465 107.399 18.6085 106.776 17.5854C106.152 16.5651 105.361 16.0563 104.403 16.0563C103.695 16.0563 102.882 16.2032 101.968 16.4943C101.051 16.7855 100.104 17.2018 99.1271 17.7432C98.1476 18.2847 97.1708 18.9513 96.1913 19.7404C95.2145 20.5321 94.3084 21.4273 93.4758 22.4259C93.4323 21.9688 93.2582 21.479 92.9453 20.9593C92.6324 20.4396 92.061 20.1784 91.2284 20.1784C91.144 20.1784 90.7686 20.1893 90.1047 20.2111C89.438 20.2328 88.6163 20.2628 87.6368 20.3036C86.6573 20.3444 85.5771 20.3879 84.3908 20.4287C83.2045 20.4696 82.0481 20.5131 80.9244 20.5539L81.9856 12.5599C84.399 12.5599 86.8777 12.5491 89.4163 12.53C91.9549 12.5082 94.2867 12.4375 96.4089 12.4157C98.5312 12.394 100.292 12.3341 101.685 12.3341H104.027C104.816 12.3341 105.546 12.228 106.212 11.9151C106.879 11.6022 107.45 11.224 107.929 10.7233C108.408 10.2227 108.773 9.69486 109.023 9.11259C109.273 8.53032 109.398 7.9943 109.398 7.49638C109.398 6.91411 109.232 6.55223 108.898 6.40803C108.563 6.2611 108.106 6.21212 107.524 6.25294L82.4835 6.94132C82.3991 4.94419 82.0672 3.2899 81.4849 1.97843C80.9026 0.666963 80.07 0.0112305 78.9871 0.0112305C78.696 0.0112305 78.4239 0.114624 78.1763 0.324132C77.926 0.53364 77.6974 0.898239 77.4907 1.41793C77.2811 1.94034 77.0934 2.66681 76.9274 3.6028C76.7615 4.53878 76.5928 5.71692 76.4268 7.13178L66.3106 7.44468C65.6031 7.4855 64.9882 7.59161 64.4685 7.75759C63.9488 7.92356 63.6876 8.36162 63.6876 9.06905C63.6876 9.36019 63.791 9.7139 64.0005 10.1302C64.21 10.5465 64.5229 10.941 64.9365 11.3165C65.3528 11.692 65.8834 12.0267 66.5282 12.277C67.1731 12.5273 67.9322 12.6116 68.8083 12.6116H75.7384L74.7398 20.7063C73.1563 20.7906 71.9509 21.1307 71.1184 21.7565C70.2858 22.3823 69.8695 23.1034 69.8695 23.936C69.8695 24.2706 69.9729 24.5373 70.1824 24.7441C70.3892 24.9536 70.7646 25.0542 71.3061 25.0542C71.5564 25.0542 71.9401 25.0434 72.4625 25.0216C72.9822 24.9998 73.5753 24.9699 74.2419 24.9264L72.7427 37.2901C72.5767 38.8736 72.4407 40.1307 72.3373 41.0666C72.2339 42.0026 72.1822 42.6175 72.1822 42.9087C72.1822 43.5345 72.2965 44.0025 72.525 44.3127C72.7536 44.6256 73.159 44.7806 73.744 44.7806C74.2855 44.7806 74.8051 44.6147 75.3058 44.28C75.8064 43.9453 76.2744 43.374 76.7098 42.5631C77.1478 41.7523 77.5614 40.6694 77.9586 39.3171C78.3532 37.9648 78.696 36.267 78.9899 34.2291L80.4265 24.6135C81.4659 24.5318 82.4862 24.4693 83.4875 24.4257C84.486 24.3849 85.4438 24.3441 86.358 24.3006C85.7322 25.6338 85.1826 27.1629 84.7037 28.8907C84.2248 30.6184 83.9854 32.2102 83.9854 33.6686C83.9854 35.916 84.5078 37.6138 85.5472 38.7566C86.5893 39.9021 87.9633 40.4735 89.6693 40.4735C91.0434 40.4735 92.2514 40.1198 93.2908 39.4123C94.3302 38.7049 95.2063 37.7472 95.9137 36.5391C96.6212 35.331 97.1517 33.9379 97.5055 32.3544C97.8592 30.7735 98.036 29.1084 98.036 27.3588C98.036 26.6922 98.0034 25.8814 97.9435 24.9236C97.8809 23.9659 97.8075 23.2367 97.7259 22.7388C97.9326 22.5728 98.2265 22.3633 98.5993 22.1157C98.9747 21.8654 99.3802 21.6259 99.8155 21.3974C100.254 21.1688 100.689 20.9512 101.127 20.7416C101.565 20.5349 101.908 20.3879 102.158 20.3036C102.158 20.9702 102.074 22.0422 101.908 23.5197C101.742 24.9971 101.573 26.5807 101.407 28.2649C101.241 29.9518 101.083 31.5844 100.939 33.1679C100.792 34.7515 100.722 35.9378 100.722 36.7268C100.722 37.6846 101.002 38.4954 101.565 39.162C102.128 39.8286 102.762 40.1606 103.47 40.1606C103.761 40.1606 104.052 40.0245 104.343 39.7552C104.634 39.4858 105.05 38.9035 105.592 38.0056C106.133 37.1105 106.83 35.799 107.684 34.0713C108.536 32.3435 109.671 30.0443 111.088 27.1711C111.088 27.7969 111.026 28.6594 110.9 29.7614C110.775 30.866 110.628 32.0007 110.462 33.1652C110.296 34.3325 110.149 35.4235 110.024 36.4439C109.899 37.4642 109.836 38.1825 109.836 38.5988C109.836 39.1811 109.962 39.7035 110.212 40.1606C110.462 40.6204 110.775 41.0122 111.148 41.3469C111.523 41.6788 111.937 41.94 112.397 42.1278C112.854 42.3155 113.292 42.408 113.708 42.408C114.25 42.408 114.696 42.2094 115.05 41.8149C115.403 41.4176 115.893 40.8054 116.516 39.9728C116.767 39.6409 117.088 39.1403 117.485 38.4736C117.879 37.807 118.307 37.0588 118.766 36.2262C119.224 35.3936 119.713 34.4875 120.233 33.5107C120.753 32.534 121.242 31.5653 121.7 30.6076C121.659 31.1082 121.626 31.6578 121.607 32.2619C121.585 32.8659 121.577 33.3965 121.577 33.8536C121.577 34.4767 121.702 35.1025 121.953 35.7255C122.203 36.3486 122.535 36.9119 122.951 37.4125C123.367 37.9131 123.865 38.3185 124.45 38.6315C125.033 38.9444 125.637 39.0994 126.262 39.0994C127.677 39.0994 129.375 38.0274 131.351 35.8834C133.329 33.7393 135.462 30.6293 137.75 26.548C138.082 27.6309 138.373 28.7955 138.623 30.0443C138.874 31.2932 139.102 32.4795 139.309 33.6033C138.436 34.2699 137.696 34.8413 137.092 35.3201C136.488 35.799 135.99 36.2262 135.592 36.6017C135.198 36.9772 134.907 37.3309 134.719 37.6628C134.531 37.9975 134.439 38.3512 134.439 38.724C134.439 39.7661 134.95 40.6504 135.968 41.3768C136.988 42.1033 138.123 42.4706 139.372 42.4706C141.037 42.4706 142.378 41.7523 143.399 40.3157C144.419 38.8791 144.928 37.037 144.928 34.7896C144.928 32.5421 144.656 30.3981 144.117 28.1071C143.575 25.8188 142.95 23.487 142.245 21.1144C142.912 20.241 143.453 19.49 143.869 18.867C144.286 18.2439 144.607 17.7106 144.838 17.2752C145.066 16.8372 145.222 16.4862 145.306 16.2141C145.388 15.9447 145.431 15.6835 145.431 15.4332C145.431 14.8101 145.254 14.3095 144.901 13.934C144.547 13.5585 144.016 13.3735 143.309 13.3735V13.3653ZM92.2596 35.2521C91.9059 36.1473 91.4787 36.5935 90.9808 36.5935C90.5645 36.5935 90.2516 36.3541 90.0448 35.8752C89.8353 35.3963 89.7319 34.7406 89.7319 33.908C89.7319 32.3272 90.0638 30.7953 90.7305 29.3179C91.3971 27.8404 92.0202 26.499 92.6052 25.291C92.6052 25.7916 92.6351 26.5698 92.6977 27.6336C92.7602 28.6975 92.7902 29.7668 92.7902 30.8497C92.7902 32.8904 92.6133 34.3569 92.2596 35.2521V35.2521Z" fill="white"/>
<path d="M148.993 42.0897C149.284 41.7986 149.431 41.4857 149.431 41.1537C149.431 40.6123 149.077 40.3429 148.37 40.3429C147.747 40.3429 147.434 40.4762 147.434 40.8082C147.434 40.8898 147.496 40.898 147.621 40.898H147.934C147.809 41.4421 147.717 41.7033 147.654 41.9945C147.592 42.2856 147.562 42.4706 147.562 42.5114C147.562 42.8869 147.687 43.0828 147.937 43.0828C148.103 43.0828 148.206 42.8379 148.25 42.3373C148.334 42.4189 148.405 42.4951 148.468 42.5577C148.53 42.6203 148.623 42.7563 148.748 42.9658C148.83 43.091 148.936 43.1536 149.061 43.1536C149.352 43.1536 149.499 43.0066 149.499 42.7155C149.499 42.4652 149.333 42.2584 148.998 42.0924L148.993 42.0897ZM148.617 41.9645C148.451 41.8802 148.326 41.8394 148.242 41.8394L148.367 40.966C148.617 40.966 148.742 41.1102 148.742 41.404C148.742 41.6108 148.702 41.7986 148.617 41.9673V41.9645Z" fill="white"/>
<path d="M150.459 39.8395C150.062 39.4232 149.469 39.2164 148.68 39.2164C147.847 39.2164 147.202 39.5076 146.743 40.0898C146.283 40.6721 146.057 41.3795 146.057 42.2121C146.057 42.9196 146.275 43.4719 146.713 43.8664C147.151 44.2609 147.7 44.4596 148.367 44.4596C149.2 44.4596 149.855 44.1793 150.334 43.6161C150.813 43.0529 151.052 42.3155 151.052 41.3986C151.052 40.7755 150.854 40.2531 150.459 39.8368V39.8395ZM149.804 43.3059C149.469 43.7004 149.034 43.8991 148.492 43.8991C147.91 43.8991 147.472 43.7222 147.181 43.3685C146.889 43.0148 146.743 42.5658 146.743 42.0271C146.743 41.404 146.898 40.8707 147.211 40.4354C147.523 39.9973 147.97 39.7797 148.552 39.7797C149.175 39.7797 149.624 39.9565 149.893 40.3102C150.163 40.6639 150.299 41.0911 150.299 41.5918C150.299 42.34 150.133 42.9141 149.798 43.3086L149.804 43.3059Z" fill="white"/>
<path d="M84.3255 60.1537C84.3255 62.0665 83.3351 63.3045 81.6999 63.3045C80.8482 63.3045 80.266 62.9426 79.8796 62.3604V63.1657H78.1056V54.8589H79.9259V57.8791C80.3095 57.3322 80.8836 57.0029 81.6999 57.0029C83.3324 57.0029 84.3255 58.2382 84.3255 60.1537ZM82.4835 60.1075C82.4835 58.9647 82.0046 58.4613 81.1992 58.4613C80.3939 58.4613 79.9041 59.011 79.9041 60.1537C79.9041 61.2965 80.383 61.8461 81.1992 61.8461C82.0155 61.8461 82.4835 61.2502 82.4835 60.1075Z" fill="white"/>
<path d="M90.7549 57.1415L88.5728 63.3941C88.0477 64.9096 87.3593 65.4592 85.5744 65.4592C85.2234 65.4592 85.0493 65.4483 84.8615 65.4347V64.0362H85.4438C86.1213 64.0362 86.3526 63.6498 86.3526 63.1954C86.3526 62.8581 86.2111 62.4254 86.0723 62.0282L84.3445 57.1415H86.3036L86.5729 57.9931C86.9239 59.1713 87.2722 60.4065 87.5987 61.7833C87.9252 60.3957 88.2626 59.1713 88.6027 58.004L88.8721 57.1415H90.7495H90.7549Z" fill="white"/>
<path d="M103.331 54.8563V63.1632H101.453V60.7253C101.453 59.3948 101.464 58.135 101.524 56.712C101.35 57.3432 101.187 57.8901 100.964 58.603L99.5298 63.1632H97.919L96.4851 58.603C96.2647 57.8901 96.1015 57.3541 95.9355 56.7256C95.9818 58.1486 95.9926 59.3975 95.9926 60.728V63.1659H94.1152V54.859H97.0674L98.1639 58.4288C98.3625 59.0927 98.5612 59.8165 98.7353 60.494C98.9094 59.8056 99.1081 59.0601 99.2958 58.3935L100.381 54.859H103.334L103.331 54.8563Z" fill="white"/>
<path d="M104.196 60.1538C104.196 58.2411 105.431 57.0031 107.358 57.0031C109.284 57.0031 110.509 58.2383 110.509 60.1538C110.509 62.0693 109.271 63.3046 107.358 63.3046C105.445 63.3046 104.196 62.0693 104.196 60.1538ZM108.664 60.1538C108.664 59.0111 108.163 58.4614 107.358 58.4614C106.552 58.4614 106.038 59.0111 106.038 60.1538C106.038 61.2966 106.539 61.8462 107.358 61.8462C108.177 61.8462 108.664 61.2966 108.664 60.1538Z" fill="white"/>
<path d="M117.066 59.2206V63.1632H115.246V59.5825C115.246 58.9186 114.955 58.5567 114.277 58.5567C113.717 58.5567 113.134 58.9186 113.134 59.8056V63.1659H111.314V57.1473H113.088V57.9989C113.485 57.4384 114.103 57.0085 114.979 57.0085C116.168 57.0085 117.066 57.7323 117.066 59.2261V59.2206Z" fill="white"/>
<path d="M117.871 60.1538C117.871 58.2411 119.107 57.0031 121.033 57.0031C122.959 57.0031 124.184 58.2383 124.184 60.1538C124.184 62.0693 122.946 63.3046 121.033 63.3046C119.12 63.3046 117.871 62.0693 117.871 60.1538ZM122.339 60.1538C122.339 59.0111 121.838 58.4614 121.033 58.4614C120.228 58.4614 119.713 59.0111 119.713 60.1538C119.713 61.2966 120.214 61.8462 121.033 61.8462C121.852 61.8462 122.339 61.2966 122.339 60.1538Z" fill="white"/>
<path d="M127.041 58.4729V61.2835C127.041 61.727 127.261 61.8087 127.729 61.8087H128.194V63.1609C127.914 63.1963 127.623 63.2072 127.354 63.2072C125.849 63.2072 125.218 62.7174 125.218 61.4794V58.4701H124.32V57.1396H125.218V55.3547H127.038V57.1396H128.192V58.4701H127.038L127.041 58.4729Z" fill="white"/>
<path d="M134.858 57.1415L132.676 63.3941C132.15 64.9096 131.462 65.4592 129.677 65.4592C129.326 65.4592 129.152 65.4483 128.964 65.4347V64.0362H129.547C130.224 64.0362 130.455 63.6498 130.455 63.1954C130.455 62.8581 130.314 62.4254 130.175 62.0282L128.447 57.1415H130.406L130.676 57.9931C131.027 59.1713 131.375 60.4065 131.702 61.7833C132.028 60.3957 132.365 59.1713 132.706 58.004L132.975 57.1415H134.852H134.858Z" fill="white"/>
<path d="M141.554 60.1538C141.554 62.0666 140.563 63.3046 138.928 63.3046C138.112 63.3046 137.541 62.9781 137.154 62.4285V65.4487H135.334V57.1418H137.108V57.9472C137.492 57.3649 138.077 57.0031 138.928 57.0031C140.561 57.0031 141.554 58.2383 141.554 60.1538ZM139.712 60.1076C139.712 58.9648 139.233 58.4614 138.428 58.4614C137.622 58.4614 137.132 59.0111 137.132 60.1538C137.132 61.2966 137.611 61.8462 138.428 61.8462C139.244 61.8462 139.712 61.2504 139.712 60.1076Z" fill="white"/>
<path d="M148.321 60.6904H143.864C143.992 61.5529 144.528 61.961 145.241 61.961C145.847 61.961 146.245 61.7161 146.454 61.2835H148.182C147.855 62.5542 146.688 63.3024 145.243 63.3024C143.377 63.3024 142.117 62.0671 142.117 60.1516C142.117 58.2361 143.342 57.0009 145.219 57.0009C147.096 57.0009 148.321 58.296 148.321 60.3258V60.6876V60.6904ZM143.878 59.5367H146.536C146.408 58.7912 145.929 58.3477 145.194 58.3477C144.531 58.3477 144.016 58.6987 143.878 59.5367Z" fill="white"/>
<path d="M148.835 61.1555H150.889V63.1608H148.835V61.1555Z" fill="white"/>
</g>
<defs>
<clipPath id="clip0_4702_1850">
<rect width="151.053" height="72" fill="white"/>
</clipPath>
</defs>
</svg>
